# xmcd CD database file
#
# Track frame offsets:
#	150
#	23755
#	43325
#	58498
#	75034
#	89830
#	113137
#
# Disc length: 1634 seconds
#
# Revision: 0
# Processed by: cddbd v1.5.2PL0 Copyright (c) Steve Scherf et al.
# Submitted via: CDex 1.51
#
DISCID=57066007
DTITLE=Dik Banovich - Passage Of Time
DYEAR=2015
DGENRE=Blues
TTITLE0=Incantations
TTITLE1=She Moved Trough The Fair
TTITLE2=Friendship
TTITLE3=Circle Round The Sun
TTITLE4=12 Gates To The City
TTITLE5=Coming Into Los Angeles
TTITLE6=Can`t Sleep At Night
EXTD=YEAR: 2015
EXTT0=
EXTT1=
EXTT2=
EXTT3=
EXTT4=
EXTT5=
EXTT6=
PLAYORDER=
